<svg width="19" height="20" viewBox="0 0 19 20" fill="none" xmlns="http://www.w3.org/2000/svg">
<path d="M7.83269 11.41C8.24269 11.8 8.24269 12.44 7.83269 12.83C7.44269 13.22 6.80269 13.22 6.41269 12.83C5.47607 11.892 4.95 10.6206 4.95 9.29502C4.95 7.96944 5.47607 6.69804 6.41269 5.76002L9.95269 2.22002C10.8907 1.28339 12.1621 0.757324 13.4877 0.757324C14.8133 0.757324 16.0847 1.28339 17.0227 2.22002C17.9593 3.15804 18.4854 4.42944 18.4854 5.75502C18.4854 7.08059 17.9593 8.35199 17.0227 9.29002L15.5327 10.78C15.5427 9.96002 15.4127 9.14002 15.1327 8.36002L15.6027 7.88002C15.883 7.6027 16.1056 7.27254 16.2575 6.90865C16.4094 6.54475 16.4876 6.15434 16.4876 5.76002C16.4876 5.36569 16.4094 4.97528 16.2575 4.61139C16.1056 4.24749 15.883 3.91733 15.6027 3.64002C15.3254 3.35968 14.9952 3.13712 14.6313 2.98524C14.2674 2.83335 13.877 2.75514 13.4827 2.75514C13.0884 2.75514 12.698 2.83335 12.3341 2.98524C11.9702 3.13712 11.64 3.35968 11.3627 3.64002L7.83269 7.17002C7.55235 7.44733 7.3298 7.77749 7.17791 8.14139C7.02602 8.50528 6.94781 8.89569 6.94781 9.29002C6.94781 9.68434 7.02602 10.0747 7.17791 10.4386C7.3298 10.8025 7.55235 11.1327 7.83269 11.41ZM10.6527 7.17002C11.0427 6.78002 11.6827 6.78002 12.0727 7.17002C13.0093 8.10804 13.5354 9.37944 13.5354 10.705C13.5354 12.0306 13.0093 13.302 12.0727 14.24L8.53269 17.78C7.59466 18.7166 6.32327 19.2427 4.99769 19.2427C3.67211 19.2427 2.40072 18.7166 1.46269 17.78C0.52607 16.842 0 15.5706 0 14.245C0 12.9194 0.52607 11.648 1.46269 10.71L2.95269 9.22002C2.94269 10.04 3.07269 10.86 3.35269 11.65L2.88269 12.12C2.60235 12.3973 2.3798 12.7275 2.22791 13.0914C2.07602 13.4553 1.99781 13.8457 1.99781 14.24C1.99781 14.6343 2.07602 15.0247 2.22791 15.3886C2.3798 15.7525 2.60235 16.0827 2.88269 16.36C3.16 16.6404 3.49016 16.8629 3.85406 17.0148C4.21796 17.1667 4.60837 17.2449 5.00269 17.2449C5.39702 17.2449 5.78742 17.1667 6.15132 17.0148C6.51522 16.8629 6.84538 16.6404 7.12269 16.36L10.6527 12.83C10.933 12.5527 11.1556 12.2225 11.3075 11.8586C11.4594 11.4947 11.5376 11.1043 11.5376 10.71C11.5376 10.3157 11.4594 9.92528 11.3075 9.56139C11.1556 9.19749 10.933 8.86733 10.6527 8.59002C10.5556 8.49901 10.4782 8.38904 10.4252 8.26692C10.3723 8.1448 10.345 8.01311 10.345 7.88002C10.345 7.74692 10.3723 7.61523 10.4252 7.49311C10.4782 7.37099 10.5556 7.26102 10.6527 7.17002Z" fill="#AD1A72"/>
</svg>
